<svg width="202" height="90" viewBox="0 0 202 90" fill="none" xmlns="http://www.w3.org/2000/svg">
<rect x="2" y="2" width="86" height="86" rx="13" stroke="#FF6F61" stroke-width="4" stroke-linejoin="round"/>
<path d="M25.208 39.846C25.808 39.054 26.528 38.424 27.368 37.956C28.22 37.488 29.132 37.254 30.104 37.254C31.748 37.254 33.086 37.668 34.118 38.496C35.162 39.324 35.93 40.494 36.422 42.006C36.914 43.518 37.16 45.312 37.16 47.388C37.16 49.356 36.866 51.114 36.278 52.662C35.702 54.198 34.844 55.41 33.704 56.298C32.564 57.174 31.166 57.612 29.51 57.612C27.506 57.612 25.928 56.832 24.776 55.272L24.56 57H19.52V30.288L25.208 29.694V39.846ZM28.016 53.472C29.024 53.472 29.822 53.01 30.41 52.086C30.998 51.15 31.292 49.608 31.292 47.46C31.292 45.876 31.166 44.652 30.914 43.788C30.674 42.912 30.326 42.306 29.87 41.97C29.426 41.622 28.904 41.448 28.304 41.448C27.668 41.448 27.098 41.646 26.594 42.042C26.09 42.438 25.628 42.978 25.208 43.662V51.726C25.568 52.29 25.97 52.722 26.414 53.022C26.858 53.322 27.392 53.472 28.016 53.472ZM40.3859 63.696V59.232H58.3859V63.696H40.3859ZM68.3799 39.846C68.9799 39.054 69.6999 38.424 70.5399 37.956C71.3919 37.488 72.3039 37.254 73.2759 37.254C74.9199 37.254 76.2579 37.668 77.2899 38.496C78.3339 39.324 79.1019 40.494 79.5939 42.006C80.0859 43.518 80.3319 45.312 80.3319 47.388C80.3319 49.356 80.0379 51.114 79.4499 52.662C78.8739 54.198 78.0159 55.41 76.8759 56.298C75.7359 57.174 74.3379 57.612 72.6819 57.612C70.6779 57.612 69.0999 56.832 67.9479 55.272L67.7319 57H62.6919V30.288L68.3799 29.694V39.846ZM71.1879 53.472C72.1959 53.472 72.9939 53.01 73.5819 52.086C74.1699 51.15 74.4639 49.608 74.4639 47.46C74.4639 45.876 74.3379 44.652 74.0859 43.788C73.8459 42.912 73.4979 42.306 73.0419 41.97C72.5979 41.622 72.0759 41.448 71.4759 41.448C70.8399 41.448 70.2699 41.646 69.7659 42.042C69.2619 42.438 68.7999 42.978 68.3799 43.662V51.726C68.7399 52.29 69.1419 52.722 69.5859 53.022C70.0299 53.322 70.5639 53.472 71.1879 53.472Z" fill="#ABB2BF"/>
<path d="M108.688 29.694C110.08 29.694 111.31 29.808 112.378 30.036C113.446 30.252 114.4 30.54 115.24 30.9L113.674 34.608C113.014 34.356 112.336 34.176 111.64 34.068C110.944 33.948 110.254 33.888 109.57 33.888C108.442 33.888 107.632 34.092 107.14 34.5C106.66 34.908 106.42 35.586 106.42 36.534V39.09H112.648L112.018 43.032H106.42V57H100.768V43.032H96.754V39.09H100.768V36.318C100.768 35.058 101.068 33.93 101.668 32.934C102.268 31.938 103.156 31.152 104.332 30.576C105.508 29.988 106.96 29.694 108.688 29.694ZM126.386 37.254C128.354 37.254 130.028 37.674 131.408 38.514C132.788 39.354 133.844 40.536 134.576 42.06C135.308 43.572 135.674 45.348 135.674 47.388C135.674 49.512 135.302 51.342 134.558 52.878C133.826 54.402 132.77 55.572 131.39 56.388C130.01 57.204 128.342 57.612 126.386 57.612C124.442 57.612 122.774 57.21 121.382 56.406C120.002 55.602 118.94 54.438 118.196 52.914C117.464 51.39 117.098 49.56 117.098 47.424C117.098 45.396 117.464 43.62 118.196 42.096C118.94 40.572 120.002 39.384 121.382 38.532C122.774 37.68 124.442 37.254 126.386 37.254ZM126.386 41.448C125.222 41.448 124.358 41.928 123.794 42.888C123.242 43.836 122.966 45.348 122.966 47.424C122.966 49.536 123.242 51.066 123.794 52.014C124.358 52.962 125.222 53.436 126.386 53.436C127.55 53.436 128.408 52.962 128.96 52.014C129.524 51.066 129.806 49.524 129.806 47.388C129.806 45.324 129.524 43.818 128.96 42.87C128.408 41.922 127.55 41.448 126.386 41.448ZM149.664 30.288V50.988C149.664 51.756 149.88 52.308 150.312 52.644C150.756 52.968 151.362 53.13 152.13 53.13C152.622 53.13 153.096 53.076 153.552 52.968C154.008 52.848 154.434 52.71 154.83 52.554L156.198 56.352C155.55 56.688 154.77 56.982 153.858 57.234C152.946 57.486 151.884 57.612 150.672 57.612C148.368 57.612 146.676 56.952 145.596 55.632C144.516 54.3 143.976 52.518 143.976 50.286V34.176H138.342V30.288H149.664ZM172.96 37.884V53.112H177.82V57H161.854V53.112H167.272V41.772H162.034V37.884H172.96ZM169.522 27.876C170.506 27.876 171.31 28.182 171.934 28.794C172.558 29.406 172.87 30.168 172.87 31.08C172.87 31.992 172.558 32.76 171.934 33.384C171.31 33.996 170.506 34.302 169.522 34.302C168.526 34.302 167.71 33.996 167.074 33.384C166.45 32.76 166.138 31.992 166.138 31.08C166.138 30.168 166.45 29.406 167.074 28.794C167.71 28.182 168.526 27.876 169.522 27.876ZM191.144 37.254C193.112 37.254 194.786 37.674 196.166 38.514C197.546 39.354 198.602 40.536 199.334 42.06C200.066 43.572 200.432 45.348 200.432 47.388C200.432 49.512 200.06 51.342 199.316 52.878C198.584 54.402 197.528 55.572 196.148 56.388C194.768 57.204 193.1 57.612 191.144 57.612C189.2 57.612 187.532 57.21 186.14 56.406C184.76 55.602 183.698 54.438 182.954 52.914C182.222 51.39 181.856 49.56 181.856 47.424C181.856 45.396 182.222 43.62 182.954 42.096C183.698 40.572 184.76 39.384 186.14 38.532C187.532 37.68 189.2 37.254 191.144 37.254ZM191.144 41.448C189.98 41.448 189.116 41.928 188.552 42.888C188 43.836 187.724 45.348 187.724 47.424C187.724 49.536 188 51.066 188.552 52.014C189.116 52.962 189.98 53.436 191.144 53.436C192.308 53.436 193.166 52.962 193.718 52.014C194.282 51.066 194.564 49.524 194.564 47.388C194.564 45.324 194.282 43.818 193.718 42.87C193.166 41.922 192.308 41.448 191.144 41.448Z" fill="white"/>
</svg>
