<svg width="125" height="90" viewBox="0 0 125 90" fill="none" xmlns="http://www.w3.org/2000/svg">
<rect x="2" y="2" width="86" height="86" rx="13" stroke="#FF6F61" stroke-width="4" stroke-linejoin="round"/>
<path d="M31.6348 59.4395C30.123 59.4395 28.8516 59.3281 27.8203 59.1055C26.7891 58.8828 25.9219 58.6074 25.2188 58.2793C24.5156 57.9512 23.9004 57.623 23.373 57.2949V34.2852C23.373 34.0039 23.4316 33.7871 23.5488 33.6348C24.041 32.9902 24.7617 32.293 25.7109 31.543C25.875 31.4258 26.0215 31.3672 26.1504 31.3672C26.3027 31.3672 26.4492 31.4258 26.5898 31.543C27.0938 31.9297 27.5156 32.293 27.8555 32.6328C28.207 32.9727 28.5059 33.3066 28.752 33.6348C28.8691 33.7871 28.9277 34.0039 28.9277 34.2852V42.8105H28.998C29.4668 42.2129 30.1172 41.6914 30.9492 41.2461C31.7812 40.7891 32.9414 40.5605 34.4297 40.5605C36.0938 40.5605 37.4648 40.9473 38.543 41.7207C39.6211 42.4824 40.4238 43.5371 40.9512 44.8848C41.4785 46.2207 41.7422 47.7559 41.7422 49.4902C41.7422 51.3652 41.4316 53.0586 40.8105 54.5703C40.1895 56.0703 39.1406 57.2598 37.6641 58.1387C36.1992 59.0059 34.1895 59.4395 31.6348 59.4395ZM31.8633 55.1855C33.2227 55.1855 34.2598 54.7344 34.9746 53.832C35.6895 52.918 36.0469 51.6172 36.0469 49.9297C36.0469 48.2188 35.7246 46.9766 35.0801 46.2031C34.4473 45.4297 33.5273 45.043 32.3203 45.043C31.3477 45.043 30.6035 45.2422 30.0879 45.6406C29.584 46.0391 29.1973 46.543 28.9277 47.1523V54.4121C29.1855 54.5996 29.5488 54.7754 30.0176 54.9395C30.498 55.1035 31.1133 55.1855 31.8633 55.1855ZM43.1484 64.9414V61.25H58.0898V64.9414H43.1484ZM68.7246 59.4395C67.2129 59.4395 65.9414 59.3281 64.9102 59.1055C63.8789 58.8828 63.0117 58.6074 62.3086 58.2793C61.6055 57.9512 60.9902 57.623 60.4629 57.2949V34.2852C60.4629 34.0039 60.5215 33.7871 60.6387 33.6348C61.1309 32.9902 61.8516 32.293 62.8008 31.543C62.9648 31.4258 63.1113 31.3672 63.2402 31.3672C63.3926 31.3672 63.5391 31.4258 63.6797 31.543C64.1836 31.9297 64.6055 32.293 64.9453 32.6328C65.2969 32.9727 65.5957 33.3066 65.8418 33.6348C65.959 33.7871 66.0176 34.0039 66.0176 34.2852V42.8105H66.0879C66.5566 42.2129 67.207 41.6914 68.0391 41.2461C68.8711 40.7891 70.0312 40.5605 71.5195 40.5605C73.1836 40.5605 74.5547 40.9473 75.6328 41.7207C76.7109 42.4824 77.5137 43.5371 78.041 44.8848C78.5684 46.2207 78.832 47.7559 78.832 49.4902C78.832 51.3652 78.5215 53.0586 77.9004 54.5703C77.2793 56.0703 76.2305 57.2598 74.7539 58.1387C73.2891 59.0059 71.2793 59.4395 68.7246 59.4395ZM68.9531 55.1855C70.3125 55.1855 71.3496 54.7344 72.0645 53.832C72.7793 52.918 73.1367 51.6172 73.1367 49.9297C73.1367 48.2188 72.8145 46.9766 72.1699 46.2031C71.5371 45.4297 70.6172 45.043 69.4102 45.043C68.4375 45.043 67.6934 45.2422 67.1777 45.6406C66.6738 46.0391 66.2871 46.543 66.0176 47.1523V54.4121C66.2754 54.5996 66.6387 54.7754 67.1074 54.9395C67.5879 55.1035 68.2031 55.1855 68.9531 55.1855Z" fill="#FF6F61"/>
<path d="M105.197 59.4395C103.217 59.4395 101.494 59.123 100.029 58.4902C98.5645 57.8457 97.4277 56.8496 96.6191 55.502C95.8105 54.1543 95.4062 52.4141 95.4062 50.2812C95.4062 47.082 96.2266 44.6621 97.8672 43.0215C99.5078 41.3809 101.688 40.5605 104.406 40.5605C106.176 40.5605 107.67 40.877 108.889 41.5098C110.119 42.1426 111.051 43.0156 111.684 44.1289C112.328 45.2422 112.65 46.5137 112.65 47.9434C112.65 49.3379 112.293 50.3105 111.578 50.8613C110.863 51.4121 109.82 51.6875 108.449 51.6875H100.908C101.002 52.8945 101.441 53.8145 102.227 54.4473C103.023 55.0801 104.102 55.3965 105.461 55.3965C106.539 55.3965 107.4 55.2383 108.045 54.9219C108.701 54.5938 109.158 54.3359 109.416 54.1484C109.639 53.9844 109.891 53.9082 110.172 53.9199C110.395 53.9199 110.711 53.9668 111.121 54.0605C111.543 54.1426 111.959 54.3008 112.369 54.5352C112.662 54.6875 112.809 54.8984 112.809 55.168C112.809 55.3203 112.779 55.5371 112.721 55.8184C112.686 55.9824 112.627 56.2227 112.545 56.5391C112.463 56.8438 112.357 57.1309 112.229 57.4004C112.158 57.5293 112.047 57.6523 111.895 57.7695C111.66 57.9336 111.279 58.1504 110.752 58.4199C110.236 58.6895 109.527 58.9238 108.625 59.123C107.723 59.334 106.58 59.4395 105.197 59.4395ZM100.873 48.084H106.604C107.201 48.084 107.5 47.8086 107.5 47.2578C107.5 46.4258 107.236 45.7285 106.709 45.166C106.193 44.5918 105.414 44.3047 104.371 44.3047C103.234 44.3047 102.396 44.668 101.857 45.3945C101.33 46.1211 101.002 47.0176 100.873 48.084ZM118.82 59.3691C118.574 59.4746 118.398 59.5273 118.293 59.5273C118.188 59.5273 118.076 59.4863 117.959 59.4043C117.689 59.2168 117.379 58.7598 117.027 58.0332C116.688 57.2949 116.518 56.1641 116.518 54.6406V34.2852C116.518 34.0039 116.576 33.7871 116.693 33.6348C117.186 32.9902 117.906 32.293 118.855 31.543C119.02 31.4258 119.166 31.3672 119.295 31.3672C119.447 31.3672 119.594 31.4258 119.734 31.543C120.238 31.9297 120.66 32.293 121 32.6328C121.352 32.9727 121.65 33.3066 121.896 33.6348C122.014 33.7871 122.072 34.0039 122.072 34.2852V53.5684C122.072 54.3418 122.137 55.0039 122.266 55.5547C122.395 56.0938 122.547 56.5273 122.723 56.8555C122.922 57.2422 122.846 57.5176 122.494 57.6816L118.82 59.3691Z" fill="#FF6F61"/>
</svg>
