<svg width="720" height="601" viewBox="0 0 720 601" fill="none" xmlns="http://www.w3.org/2000/svg">
<circle cx="2" cy="82.8511" r="2" fill="#ABB2BF"/>
<circle cx="33.4928" cy="82.8511" r="2" fill="#ABB2BF"/>
<circle cx="64.9857" cy="82.8511" r="2" fill="#ABB2BF"/>
<circle cx="96.4785" cy="82.8511" r="2" fill="#ABB2BF"/>
<circle cx="127.971" cy="82.8511" r="2" fill="#ABB2BF"/>
<circle cx="2" cy="115.362" r="2" fill="#ABB2BF"/>
<circle cx="33.4928" cy="115.362" r="2" fill="#ABB2BF"/>
<circle cx="64.9857" cy="115.362" r="2" fill="#ABB2BF"/>
<circle cx="96.4785" cy="115.362" r="2" fill="#ABB2BF"/>
<circle cx="127.971" cy="115.362" r="2" fill="#ABB2BF"/>
<circle cx="2" cy="147.873" r="2" fill="#ABB2BF"/>
<circle cx="33.4928" cy="147.873" r="2" fill="#ABB2BF"/>
<circle cx="64.9857" cy="147.873" r="2" fill="#ABB2BF"/>
<circle cx="96.4785" cy="147.873" r="2" fill="#ABB2BF"/>
<circle cx="127.971" cy="147.873" r="2" fill="#ABB2BF"/>
<circle cx="2" cy="180.383" r="2" fill="#ABB2BF"/>
<circle cx="33.4928" cy="180.383" r="2" fill="#ABB2BF"/>
<circle cx="64.9857" cy="180.383" r="2" fill="#ABB2BF"/>
<circle cx="96.4785" cy="180.383" r="2" fill="#ABB2BF"/>
<circle cx="127.971" cy="180.383" r="2" fill="#ABB2BF"/>
<circle cx="2" cy="212.894" r="2" fill="#ABB2BF"/>
<circle cx="33.4928" cy="212.894" r="2" fill="#ABB2BF"/>
<circle cx="64.9857" cy="212.894" r="2" fill="#ABB2BF"/>
<circle cx="96.4785" cy="212.894" r="2" fill="#ABB2BF"/>
<circle cx="127.971" cy="212.894" r="2" fill="#ABB2BF"/>
<circle cx="367.158" cy="306.255" r="2" fill="#ABB2BF"/>
<circle cx="398.65" cy="306.255" r="2" fill="#ABB2BF"/>
<circle cx="430.143" cy="306.255" r="2" fill="#ABB2BF"/>
<circle cx="461.636" cy="306.255" r="2" fill="#ABB2BF"/>
<circle cx="493.129" cy="306.255" r="2" fill="#ABB2BF"/>
<circle cx="367.158" cy="338.766" r="2" fill="#ABB2BF"/>
<circle cx="398.65" cy="338.766" r="2" fill="#ABB2BF"/>
<circle cx="430.143" cy="338.766" r="2" fill="#ABB2BF"/>
<circle cx="461.636" cy="338.766" r="2" fill="#ABB2BF"/>
<circle cx="493.129" cy="338.766" r="2" fill="#ABB2BF"/>
<circle cx="367.158" cy="371.277" r="2" fill="#ABB2BF"/>
<circle cx="398.65" cy="371.277" r="2" fill="#ABB2BF"/>
<circle cx="430.143" cy="371.277" r="2" fill="#ABB2BF"/>
<circle cx="461.636" cy="371.277" r="2" fill="#ABB2BF"/>
<circle cx="493.129" cy="371.277" r="2" fill="#ABB2BF"/>
<circle cx="367.158" cy="403.787" r="2" fill="#ABB2BF"/>
<circle cx="398.65" cy="403.787" r="2" fill="#ABB2BF"/>
<circle cx="430.143" cy="403.787" r="2" fill="#ABB2BF"/>
<circle cx="461.636" cy="403.787" r="2" fill="#ABB2BF"/>
<circle cx="493.129" cy="403.787" r="2" fill="#ABB2BF"/>
<circle cx="367.158" cy="436.298" r="2" fill="#ABB2BF"/>
<circle cx="398.65" cy="436.298" r="2" fill="#ABB2BF"/>
<circle cx="430.143" cy="436.298" r="2" fill="#ABB2BF"/>
<circle cx="461.636" cy="436.298" r="2" fill="#ABB2BF"/>
<circle cx="493.129" cy="436.298" r="2" fill="#ABB2BF"/>
<rect x="613.222" y="411.138" width="106.278" height="109.638" stroke="#ABB2BF"/>
<rect x="468.809" y="0.5" width="176.421" height="181.979" stroke="#ABB2BF"/>
<mask id="path-53-inside-1_598_1412" fill="white">
<path fill-rule="evenodd" clip-rule="evenodd" d="M147.507 359.574H205.788H264.069V419.681H205.788H147.507V359.574ZM264.069 539.893H205.788H147.507V479.787H205.788V419.681H264.069V479.787V539.893Z"/>
</mask>
<path d="M147.507 359.574V358.574H146.507V359.574H147.507ZM264.069 359.574H265.069V358.574H264.069V359.574ZM264.069 419.681V420.681H265.069V419.681H264.069ZM147.507 419.681H146.507V420.681H147.507V419.681ZM264.069 539.893V540.893H265.069V539.893H264.069ZM147.507 539.893H146.507V540.893H147.507V539.893ZM147.507 479.787V478.787H146.507V479.787H147.507ZM205.788 479.787V480.787H206.788V479.787H205.788ZM205.788 419.681V418.681H204.788V419.681H205.788ZM264.069 419.681H265.069V418.681H264.069V419.681ZM205.788 358.574H147.507V360.574H205.788V358.574ZM264.069 358.574H205.788V360.574H264.069V358.574ZM265.069 419.681V359.574H263.069V419.681H265.069ZM205.788 420.681H264.069V418.681H205.788V420.681ZM147.507 420.681H205.788V418.681H147.507V420.681ZM146.507 359.574V419.681H148.507V359.574H146.507ZM205.788 540.893H264.069V538.893H205.788V540.893ZM205.788 538.893H147.507V540.893H205.788V538.893ZM148.507 539.893V479.787H146.507V539.893H148.507ZM147.507 480.787H205.788V478.787H147.507V480.787ZM204.788 419.681V479.787H206.788V419.681H204.788ZM264.069 418.681H205.788V420.681H264.069V418.681ZM265.069 479.787V419.681H263.069V479.787H265.069ZM265.069 539.893V479.787H263.069V539.893H265.069Z" fill="#FF6F61" mask="url(#path-53-inside-1_598_1412)"/>
<mask id="path-55-outside-2_598_1412" maskUnits="userSpaceOnUse" x="29.9456" y="418.681" width="119" height="183" fill="black">
<rect fill="white" x="29.9456" y="418.681" width="119" height="183"/>
<path fill-rule="evenodd" clip-rule="evenodd" d="M30.9456 419.681H89.2264H147.507V479.787H89.2264H30.9456V419.681ZM89.2264 479.787H30.9456V539.893V600H89.2264H147.507V539.894L89.2264 539.893V479.787Z"/>
</mask>
<path d="M30.9456 419.681V418.681H29.9456V419.681H30.9456ZM147.507 419.681H148.507V418.681H147.507V419.681ZM147.507 479.787V480.787H148.507V479.787H147.507ZM30.9456 479.787H29.9456V480.787H30.9456V479.787ZM30.9456 479.787V478.787H29.9456V479.787H30.9456ZM89.2264 479.787H90.2264V478.787H89.2264V479.787ZM30.9456 600H29.9456V601H30.9456V600ZM147.507 600V601H148.507V600H147.507ZM147.507 539.894H148.507V538.894L147.507 538.894L147.507 539.894ZM89.2264 539.893H88.2264V540.893L89.2264 540.893L89.2264 539.893ZM89.2264 418.681H30.9456V420.681H89.2264V418.681ZM147.507 418.681H89.2264V420.681H147.507V418.681ZM148.507 479.787V419.681H146.507V479.787H148.507ZM89.2264 480.787H147.507V478.787H89.2264V480.787ZM30.9456 480.787H89.2264V478.787H30.9456V480.787ZM29.9456 419.681V479.787H31.9456V419.681H29.9456ZM30.9456 480.787H89.2264V478.787H30.9456V480.787ZM31.9456 539.893V479.787H29.9456V539.893H31.9456ZM31.9456 600V539.893H29.9456V600H31.9456ZM89.2264 599H30.9456V601H89.2264V599ZM147.507 599H89.2264V601H147.507V599ZM146.507 539.894V600H148.507V539.894H146.507ZM89.2264 540.893L147.507 540.894L147.507 538.894L89.2264 538.893L89.2264 540.893ZM88.2264 479.787V539.893H90.2264V479.787H88.2264Z" fill="#FF6F61" mask="url(#path-55-outside-2_598_1412)"/>
</svg>
