<svg width="720" height="600" viewBox="0 0 720 600" fill="none" xmlns="http://www.w3.org/2000/svg">
<g clip-path="url(#clip0_8_2)">
<g clip-path="url(#clip1_8_2)">
<mask id="mask0_8_2" style="mask-type:luminance" maskUnits="userSpaceOnUse" x="0" y="330" width="129" height="189">
<path fill-rule="evenodd" clip-rule="evenodd" d="M0 330.957H64.0865H128.173V393.305H64.0865V455.652H128.173V518H64.0865H0V455.652V393.305V330.957Z" fill="white"/>
</mask>
<g mask="url(#mask0_8_2)">
<path d="M-2.3365e-05 330.957V329.348H-1.65387V330.957H-2.3365e-05ZM128.173 330.957H129.827V329.348H128.173V330.957ZM128.173 393.305V394.913H129.827V393.305H128.173ZM64.0865 393.305V391.696H62.4327V393.305H64.0865ZM64.0865 455.652H62.4327V457.261H64.0865V455.652ZM128.173 455.652H129.827V454.043H128.173V455.652ZM128.173 518V519.609H129.827V518H128.173ZM-2.3365e-05 518H-1.65387V519.609H-2.3365e-05V518ZM64.0865 329.348H-2.3365e-05V332.566H64.0865V329.348ZM128.173 329.348H64.0865V332.566H128.173V329.348ZM129.827 393.305V330.957H126.519V393.305H129.827ZM64.0865 394.913H128.173V391.696H64.0865V394.913ZM65.7404 455.652V393.305H62.4327V455.652H65.7404ZM64.0865 457.261H128.173V454.043H64.0865V457.261ZM126.519 455.652V518H129.827V455.652H126.519ZM128.173 516.391H64.0865V519.609H128.173V516.391ZM-2.3365e-05 519.609H64.0865V516.391H-2.3365e-05V519.609ZM-1.65387 455.652V518H1.65382V455.652H-1.65387ZM-1.65387 393.305V455.652H1.65382V393.305H-1.65387ZM-1.65387 330.957V393.305H1.65382V330.957H-1.65387Z" fill="#FF6F61"/>
</g>
<mask id="mask1_8_2" style="mask-type:luminance" maskUnits="userSpaceOnUse" x="126" y="267" width="133" height="192">
<path d="M258.827 267H126.519V458.468H258.827V267Z" fill="white"/>
<path fill-rule="evenodd" clip-rule="evenodd" d="M128.173 268.609H192.26H256.346V330.957V393.305V455.652H192.26H128.173V393.305H192.26V330.957H128.173V268.609Z" fill="black"/>
</mask>
<g mask="url(#mask1_8_2)">
<path d="M128.173 268.609V267H126.519V268.609H128.173ZM256.346 268.609H258V267H256.346V268.609ZM256.346 455.652V457.261H258V455.652H256.346ZM128.173 455.652H126.519V457.261H128.173V455.652ZM128.173 393.304V391.696H126.519V393.304H128.173ZM192.26 393.304V394.913H193.913V393.304H192.26ZM192.26 330.957H193.913V329.348H192.26V330.957ZM128.173 330.957H126.519V332.566H128.173V330.957ZM192.26 267H128.173V270.218H192.26V267ZM256.346 267H192.26V270.218H256.346V267ZM258 330.957V268.609H254.692V330.957H258ZM258 393.304V330.957H254.692V393.304H258ZM258 455.652V393.304H254.692V455.652H258ZM192.26 457.261H256.346V454.043H192.26V457.261ZM192.26 454.043H128.173V457.261H192.26V454.043ZM129.827 455.652V393.304H126.519V455.652H129.827ZM128.173 394.913H192.26V391.696H128.173V394.913ZM190.606 330.957V393.304H193.913V330.957H190.606ZM128.173 332.566H192.26V329.348H128.173V332.566ZM126.519 268.609V330.957H129.827V268.609H126.519Z" fill="#FF6F61"/>
</g>
</g>
<path d="M434.4 348V372C434.4 404 489.6 418 489.6 418C489.6 418 426 458 360 458C294 458 230.4 418 230.4 418C230.4 418 286.034 404 285.6 372C285.166 340 285.456 321.2 285.166 266.376C250.769 229.222 252.977 204.286 271.786 186.75C334.8 128 506.4 148 506.4 148C506.4 148 522.413 291.986 486 334C470.4 352 434.4 348 434.4 348Z" fill="url(#paint0_linear_8_2)"/>
<path style="mix-blend-mode:multiply" opacity="0.6" d="M434.4 348C381.6 343 350.4 324 350.4 324C370.098 348.285 400.118 365.439 434.4 372V348Z" fill="url(#paint1_linear_8_2)"/>
<path d="M612 478.626C634.848 517.34 648 606.626 648 606.626H72C72 606.626 85.1568 517.33 108 478.626C130.843 439.922 264.24 404.024 264.24 404.024C289.951 448.01 431.059 448.01 455.69 404.01C455.69 404.01 589.152 439.912 612 478.626Z" fill="white"/>
<mask id="mask2_8_2" style="mask-type:alpha" maskUnits="userSpaceOnUse" x="72" y="404" width="576" height="203">
<path d="M612 478.626C634.848 517.34 648 606.626 648 606.626H72C72 606.626 85.1568 517.33 108 478.626C130.843 439.922 264.24 404.024 264.24 404.024C289.951 448.01 431.059 448.01 455.69 404.01C455.69 404.01 589.152 439.912 612 478.626Z" fill="url(#paint2_linear_8_2)"/>
</mask>
<g mask="url(#mask2_8_2)">
<path d="M47.9999 576.01V560.01H672V576.01H47.9999ZM47.9999 536.01V520.01H672V536.01H47.9999ZM47.9999 496.01V480.01H672V496.01H47.9999Z" fill="#FF6F61"/>
</g>
<path d="M314.772 206.418C307.14 200.956 297.866 197.278 284.758 202.954C253.68 216.4 277.2 268 304.8 268C312 268 315.581 286.844 283.524 300C283.524 279 245.124 227 241.764 179.656C238.914 139.5 239.251 133.5 239.251 119.692C259.2 78.2378 284.758 82.5 352.246 78.2378C440.746 72.6485 453.6 78.2378 504 96C531 42 570.324 139 516.24 167.672C491.4 187.5 469.8 135 352.246 167.672C342 179.656 349.073 186.31 352.246 198C362.016 234 340.2 256.5 314.772 206.418Z" fill="url(#paint3_linear_8_2)"/>
<g clip-path="url(#clip2_8_2)">
<path d="M567.048 195.19C568.731 195.19 570.095 193.581 570.095 191.595C570.095 189.61 568.731 188 567.048 188C565.364 188 564 189.61 564 191.595C564 193.581 565.364 195.19 567.048 195.19Z" fill="#ABB2BF"/>
<path d="M597.524 195.19C599.207 195.19 600.571 193.581 600.571 191.595C600.571 189.61 599.207 188 597.524 188C595.841 188 594.476 189.61 594.476 191.595C594.476 193.581 595.841 195.19 597.524 195.19Z" fill="#ABB2BF"/>
<path d="M628 195.19C629.683 195.19 631.048 193.581 631.048 191.595C631.048 189.61 629.683 188 628 188C626.317 188 624.952 189.61 624.952 191.595C624.952 193.581 626.317 195.19 628 195.19Z" fill="#ABB2BF"/>
<path d="M658.476 195.19C660.159 195.19 661.524 193.581 661.524 191.595C661.524 189.61 660.159 188 658.476 188C656.793 188 655.429 189.61 655.429 191.595C655.429 193.581 656.793 195.19 658.476 195.19Z" fill="#ABB2BF"/>
<path d="M688.952 195.19C690.636 195.19 692 193.581 692 191.595C692 189.61 690.636 188 688.952 188C687.269 188 685.905 189.61 685.905 191.595C685.905 193.581 687.269 195.19 688.952 195.19Z" fill="#ABB2BF"/>
<path d="M567.048 231.143C568.731 231.143 570.095 229.533 570.095 227.548C570.095 225.562 568.731 223.952 567.048 223.952C565.364 223.952 564 225.562 564 227.548C564 229.533 565.364 231.143 567.048 231.143Z" fill="#ABB2BF"/>
<path d="M597.524 231.143C599.207 231.143 600.571 229.533 600.571 227.548C600.571 225.562 599.207 223.952 597.524 223.952C595.841 223.952 594.476 225.562 594.476 227.548C594.476 229.533 595.841 231.143 597.524 231.143Z" fill="#ABB2BF"/>
<path d="M628 231.143C629.683 231.143 631.048 229.533 631.048 227.548C631.048 225.562 629.683 223.952 628 223.952C626.317 223.952 624.952 225.562 624.952 227.548C624.952 229.533 626.317 231.143 628 231.143Z" fill="#ABB2BF"/>
<path d="M658.476 231.143C660.159 231.143 661.524 229.533 661.524 227.548C661.524 225.562 660.159 223.952 658.476 223.952C656.793 223.952 655.429 225.562 655.429 227.548C655.429 229.533 656.793 231.143 658.476 231.143Z" fill="#ABB2BF"/>
<path d="M688.952 231.143C690.636 231.143 692 229.533 692 227.548C692 225.562 690.636 223.952 688.952 223.952C687.269 223.952 685.905 225.562 685.905 227.548C685.905 229.533 687.269 231.143 688.952 231.143Z" fill="#ABB2BF"/>
<path d="M567.048 267.095C568.731 267.095 570.095 265.486 570.095 263.5C570.095 261.514 568.731 259.905 567.048 259.905C565.364 259.905 564 261.514 564 263.5C564 265.486 565.364 267.095 567.048 267.095Z" fill="#ABB2BF"/>
<path d="M597.524 267.095C599.207 267.095 600.571 265.486 600.571 263.5C600.571 261.514 599.207 259.905 597.524 259.905C595.841 259.905 594.476 261.514 594.476 263.5C594.476 265.486 595.841 267.095 597.524 267.095Z" fill="#ABB2BF"/>
<path d="M628 267.095C629.683 267.095 631.048 265.486 631.048 263.5C631.048 261.514 629.683 259.905 628 259.905C626.317 259.905 624.952 261.514 624.952 263.5C624.952 265.486 626.317 267.095 628 267.095Z" fill="#ABB2BF"/>
<path d="M658.476 267.095C660.159 267.095 661.524 265.486 661.524 263.5C661.524 261.514 660.159 259.905 658.476 259.905C656.793 259.905 655.429 261.514 655.429 263.5C655.429 265.486 656.793 267.095 658.476 267.095Z" fill="#ABB2BF"/>
<path d="M688.952 267.095C690.636 267.095 692 265.486 692 263.5C692 261.514 690.636 259.905 688.952 259.905C687.269 259.905 685.905 261.514 685.905 263.5C685.905 265.486 687.269 267.095 688.952 267.095Z" fill="#ABB2BF"/>
<path d="M567.048 303.048C568.731 303.048 570.095 301.438 570.095 299.452C570.095 297.467 568.731 295.857 567.048 295.857C565.364 295.857 564 297.467 564 299.452C564 301.438 565.364 303.048 567.048 303.048Z" fill="#ABB2BF"/>
<path d="M597.524 303.048C599.207 303.048 600.571 301.438 600.571 299.452C600.571 297.467 599.207 295.857 597.524 295.857C595.841 295.857 594.476 297.467 594.476 299.452C594.476 301.438 595.841 303.048 597.524 303.048Z" fill="#ABB2BF"/>
<path d="M628 303.048C629.683 303.048 631.048 301.438 631.048 299.452C631.048 297.467 629.683 295.857 628 295.857C626.317 295.857 624.952 297.467 624.952 299.452C624.952 301.438 626.317 303.048 628 303.048Z" fill="#ABB2BF"/>
<path d="M658.476 303.048C660.159 303.048 661.524 301.438 661.524 299.452C661.524 297.467 660.159 295.857 658.476 295.857C656.793 295.857 655.429 297.467 655.429 299.452C655.429 301.438 656.793 303.048 658.476 303.048Z" fill="#ABB2BF"/>
<path d="M688.952 303.048C690.636 303.048 692 301.438 692 299.452C692 297.467 690.636 295.857 688.952 295.857C687.269 295.857 685.905 297.467 685.905 299.452C685.905 301.438 687.269 303.048 688.952 303.048Z" fill="#ABB2BF"/>
<path d="M567.048 339C568.731 339 570.095 337.39 570.095 335.405C570.095 333.419 568.731 331.81 567.048 331.81C565.364 331.81 564 333.419 564 335.405C564 337.39 565.364 339 567.048 339Z" fill="#ABB2BF"/>
<path d="M597.524 339C599.207 339 600.571 337.39 600.571 335.405C600.571 333.419 599.207 331.81 597.524 331.81C595.841 331.81 594.476 333.419 594.476 335.405C594.476 337.39 595.841 339 597.524 339Z" fill="#ABB2BF"/>
<path d="M628 339C629.683 339 631.048 337.39 631.048 335.405C631.048 333.419 629.683 331.81 628 331.81C626.317 331.81 624.952 333.419 624.952 335.405C624.952 337.39 626.317 339 628 339Z" fill="#ABB2BF"/>
<path d="M658.476 339C660.159 339 661.524 337.39 661.524 335.405C661.524 333.419 660.159 331.81 658.476 331.81C656.793 331.81 655.429 333.419 655.429 335.405C655.429 337.39 656.793 339 658.476 339Z" fill="#ABB2BF"/>
<path d="M688.952 339C690.636 339 692 337.39 692 335.405C692 333.419 690.636 331.81 688.952 331.81C687.269 331.81 685.905 333.419 685.905 335.405C685.905 337.39 687.269 339 688.952 339Z" fill="#ABB2BF"/>
</g>
</g>
<defs>
<linearGradient id="paint0_linear_8_2" x1="370.153" y1="144.718" x2="370.153" y2="458" gradientUnits="userSpaceOnUse">
<stop stop-color="#E6864E"/>
<stop offset="1" stop-color="#EB965E"/>
</linearGradient>
<linearGradient id="paint1_linear_8_2" x1="418.524" y1="333.024" x2="408.1" y2="380.393" gradientUnits="userSpaceOnUse">
<stop stop-color="#E07A3F"/>
<stop offset="1" stop-color="#EB9154"/>
</linearGradient>
<linearGradient id="paint2_linear_8_2" x1="360" y1="606.626" x2="360" y2="404.01" gradientUnits="userSpaceOnUse">
<stop stop-color="#FFC9B3"/>
<stop offset="1" stop-color="#FFD2C2"/>
</linearGradient>
<linearGradient id="paint3_linear_8_2" x1="379.16" y1="59.9948" x2="379.16" y2="300" gradientUnits="userSpaceOnUse">
<stop stop-color="#4A342E"/>
<stop offset="1" stop-color="#1C1C1C"/>
</linearGradient>
<clipPath id="clip0_8_2">
<rect width="720" height="600" fill="white"/>
</clipPath>
<clipPath id="clip1_8_2">
<rect width="258" height="251" fill="white" transform="translate(0 267)"/>
</clipPath>
<clipPath id="clip2_8_2">
<rect width="128" height="151" fill="white" transform="translate(564 188)"/>
</clipPath>
</defs>
</svg>
